<svg xmlns="http://www.w3.org/2000/svg" viewBox="0 0 273 36">
  <defs>
    <linearGradient id="a" x2="273.4" y1="17.8" y2="17.8" gradientUnits="userSpaceOnUse">
      <stop offset="0" stop-color="#90cea1"/>
      <stop offset=".6" stop-color="#3cbec9"/>
      <stop offset="1" stop-color="#00b3e5"/>
    </linearGradient>
  </defs>
  <g data-name="Layer 2">
    <path d="M192 35h64a18 18 0 0 0 17-17 18 18 0 0 0-17-18h-64a18 18 0 0 0-18 18 18 18 0 0 0 18 17ZM10 35h8V7h10V0H0v7h10Zm28 0h8V8l9 27h6l9-27v27h8V0H66l-8 23-8-23H38ZM89 0h12a34 34 0 0 1 8 1 19 19 0 0 1 7 3 15 15 0 0 1 4 6 19 19 0 0 1 2 8 17 17 0 0 1-2 8 16 16 0 0 1-4 5 19 19 0 0 1-7 3 25 25 0 0 1-7 2H89Zm8 28h4a22 22 0 0 0 5 0 11 11 0 0 0 4-2 9 9 0 0 0 3-3 12 12 0 0 0 1-5 10 10 0 0 0-1-5 9 9 0 0 0-3-3 12 12 0 0 0-4-2 17 17 0 0 0-4-1h-5Zm36-28h13a33 33 0 0 1 5 0 13 13 0 0 1 4 2 8 8 0 0 1 3 2 8 8 0 0 1 1 5 7 7 0 0 1-1 5 9 9 0 0 1-5 3 10 10 0 0 1 3 1 9 9 0 0 1 3 2 8 8 0 0 1 1 2 9 9 0 0 1 1 4 9 9 0 0 1-1 4 9 9 0 0 1-3 3 13 13 0 0 1-5 2 23 23 0 0 1-4 1h-15Zm8 14h6a8 8 0 0 0 1 0 5 5 0 0 0 2-1 3 3 0 0 0 1-1 4 4 0 0 0 0-2 3 3 0 0 0 0-1 3 3 0 0 0-1-2 6 6 0 0 0-2 0 10 10 0 0 0-2 0h-5Zm0 15h7a8 8 0 0 0 2 0 5 5 0 0 0 1-1 4 4 0 0 0 2-1 4 4 0 0 0 0-2 3 3 0 0 0-1-2 4 4 0 0 0-1-1 8 8 0 0 0-2-1 15 15 0 0 0-2 0h-6Z" data-name="Layer 1" style="fill:url(#a)"/>
  </g>
</svg>
